<svg width="1368" height="912" viewBox="0 0 1368 912" fill="none" xmlns="http://www.w3.org/2000/svg">
  <defs>
    <linearGradient id="bg" x1="78" y1="70" x2="1240" y2="812" gradientUnits="userSpaceOnUse">
      <stop stop-color="#B7E243"/>
      <stop offset="1" stop-color="#EDF6EB"/>
    </linearGradient>
    <linearGradient id="panel" x1="520" y1="636" x2="1222" y2="770" gradientUnits="userSpaceOnUse">
      <stop stop-color="#121E36"/>
      <stop offset="1" stop-color="#0A1630"/>
    </linearGradient>
    <filter id="shadow" x="-20%" y="-20%" width="140%" height="140%">
      <feDropShadow dx="0" dy="16" stdDeviation="18" flood-color="#314516" flood-opacity="0.18"/>
    </filter>
  </defs>

  <path d="M64 76L120 26H1268C1294.5 26 1316 47.5 1316 74V838C1316 864.5 1294.5 886 1268 886H100C73.5 886 52 864.5 52 838V142L64 130V76Z" fill="url(#bg)"/>
  <rect x="52" y="26" width="1264" height="860" rx="48" stroke="white" stroke-opacity="0.2" stroke-width="2"/>
  <circle cx="1260" cy="844" r="26" fill="white" fill-opacity="0.16"/>
  <path d="M1260 818L1266.8 837.2L1286 844L1266.8 850.8L1260 870L1253.2 850.8L1234 844L1253.2 837.2L1260 818Z" fill="white" fill-opacity="0.55"/>

  <g filter="url(#shadow)">
    <rect x="148" y="158" width="248" height="104" rx="22" fill="#F6F7F8"/>
    <rect x="148" y="304" width="248" height="104" rx="22" fill="#F6F7F8"/>
    <rect x="148" y="450" width="248" height="104" rx="22" fill="#F6F7F8"/>
    <rect x="148" y="596" width="248" height="104" rx="22" fill="#F6F7F8"/>
    <g fill="#1F2733" font-family="Arial, Helvetica, sans-serif" font-size="28" font-weight="500">
      <text x="272" y="221" text-anchor="middle">Finance</text>
      <text x="272" y="367" text-anchor="middle">Marketing</text>
      <text x="272" y="513" text-anchor="middle">Law firm</text>
      <text x="272" y="659" text-anchor="middle">Product</text>
    </g>
  </g>

  <g filter="url(#shadow)">
    <rect x="596" y="366" width="132" height="132" rx="24" fill="#FF9039"/>
    <text x="662" y="440" text-anchor="middle" fill="white" font-family="Arial, Helvetica, sans-serif" font-size="26" font-weight="600">FlowGrid</text>
  </g>

  <g fill="#1B2530" font-family="Arial, Helvetica, sans-serif">
    <text x="868" y="190" font-size="32" font-weight="600">Operational Workflow</text>
    <text x="868" y="230" font-size="32" font-weight="600">Executions</text>
    <text x="868" y="560" font-size="20" font-weight="500">2023</text>
    <text x="1032" y="560" font-size="20" font-weight="500">2024</text>
    <text x="1202" y="560" font-size="20" font-weight="500">2025</text>
    <text x="868" y="500" font-size="22" font-weight="600">1M</text>
    <text x="1032" y="402" font-size="22" font-weight="600">30M</text>
    <text x="1188" y="286" font-size="22" font-weight="600">500M</text>
  </g>
  <path d="M866 532H1244" stroke="#AFC98A" stroke-width="2"/>
  <path d="M866 532L938 476L986 448L1040 390L1084 350L1146 332L1194 294L1240 246" stroke="#2B3642" stroke-width="4" stroke-linecap="round" stroke-linejoin="round"/>
  <path d="M866 532L938 476L986 448L1040 390L1084 350L1146 332L1194 294L1240 246V532H866Z" fill="url(#chartDots)" fill-opacity="0.22"/>
  <defs>
    <pattern id="chartDots" width="8" height="8" patternUnits="userSpaceOnUse">
      <circle cx="2" cy="2" r="1.5" fill="#5B6D4A"/>
    </pattern>
  </defs>

  <g filter="url(#shadow)">
    <rect x="498" y="618" width="778" height="142" rx="24" fill="url(#panel)"/>
    <text x="528" y="672" fill="white" font-family="Arial, Helvetica, sans-serif" font-size="24" font-weight="600">Deployment Overview</text>
    <rect x="528" y="690" width="718" height="74" rx="18" fill="#FAFBFC"/>
    <text x="548" y="728" fill="#1F2733" font-family="Arial, Helvetica, sans-serif" font-size="18" font-weight="500">FlowGrid</text>
    <text x="548" y="754" fill="#1F2733" font-family="Arial, Helvetica, sans-serif" font-size="18" font-weight="500">Cluster</text>
    <rect x="690" y="708" width="60" height="34" rx="17" fill="#CDECC8"/>
    <text x="720" y="730" text-anchor="middle" fill="#2A6E38" font-family="Arial, Helvetica, sans-serif" font-size="16" font-weight="600">Active</text>
    <g fill="#5C6774" font-family="Arial, Helvetica, sans-serif" font-size="14" font-weight="500">
      <text x="770" y="720">Executions</text>
      <text x="860" y="720">Avg Runtime</text>
      <text x="962" y="720">Error Rate</text>
      <text x="1048" y="720">Boards</text>
      <text x="1118" y="720">Last Run</text>
    </g>
    <g fill="#1F2733" font-family="Arial, Helvetica, sans-serif" font-size="18" font-weight="600">
      <text x="770" y="752">2</text>
      <text x="860" y="752">2m 40s</text>
      <text x="962" y="752">0%</text>
      <text x="1048" y="752">1</text>
      <text x="1118" y="752">Sep 23, 2:25, 02:34</text>
    </g>
  </g>

  <g stroke="#394549" stroke-width="3" fill="none" stroke-linecap="round">
    <path d="M396 210C506 210 480 392 596 404"/>
    <path d="M396 356C506 356 494 404 596 420"/>
    <path d="M396 502C496 502 494 432 596 436"/>
    <path d="M396 648C496 648 494 448 596 452"/>
    <path d="M736 432H838"/>
    <path d="M662 498C662 580 774 548 858 618"/>
    <path d="M858 618C890 644 892 678 892 706"/>
  </g>
</svg>
